<svg height="100" viewBox="0 0 41 31" fill="none" xmlns="http://www.w3.org/2000/svg">
    <path d="M11.008 4.092C12.672 4.092 14.1653 4.412 15.488 5.052C16.8107 5.67067 17.9307 6.492 18.848 7.516C19.7867 8.51867 20.5013 9.66 20.992 10.94C21.504 12.22 21.76 13.5213 21.76 14.844C21.76 15.804 21.664 16.6893 21.472 17.5C21.28 18.3107 21.0133 19.0573 20.672 19.74C20.3307 20.4227 19.936 21.052 19.488 21.628C19.0613 22.1827 18.592 22.6947 18.08 23.164L19.136 24.348C19.968 25.116 20.8747 25.7987 21.856 26.396C22.8373 27.0147 23.8293 27.5267 24.832 27.932C25.8347 28.3587 26.8267 28.6787 27.808 28.892C28.7893 29.1053 29.6853 29.212 30.496 29.212C31.2 29.212 31.9467 29.148 32.736 29.02C33.5467 28.892 34.3573 28.7 35.168 28.444C36 28.188 36.8213 27.8467 37.632 27.42C38.4427 27.0147 39.2107 26.524 39.936 25.948L40.128 26.236C39.424 27.004 38.6347 27.676 37.76 28.252C36.8853 28.8493 35.968 29.34 35.008 29.724C34.048 30.108 33.056 30.396 32.032 30.588C31.0293 30.8013 30.0373 30.908 29.056 30.908C28.0747 30.908 27.0933 30.8227 26.112 30.652C25.1307 30.4813 24.1493 30.1933 23.168 29.788C22.1867 29.3827 21.2053 28.828 20.224 28.124C19.2427 27.4413 18.2613 26.5773 17.28 25.532L16.192 24.38C15.8293 24.6147 15.4133 24.828 14.944 25.02C14.496 25.1907 14.016 25.34 13.504 25.468C12.992 25.596 12.4693 25.692 11.936 25.756C11.4027 25.82 10.9013 25.852 10.432 25.852C8.93867 25.852 7.552 25.5533 6.272 24.956C5.01333 24.3373 3.91467 23.5373 2.976 22.556C2.05867 21.5533 1.33333 20.412 0.8 19.132C0.266667 17.852 0 16.54 0 15.196C0 13.8307 0.245333 12.4867 0.736 11.164C1.22667 9.82 1.94133 8.62534 2.88 7.58C3.84 6.53467 5.00267 5.692 6.368 5.052C7.73333 4.412 9.28 4.092 11.008 4.092ZM10.976 24.732C12.4053 24.668 13.664 24.348 14.752 23.772C15.84 23.1747 16.736 22.428 17.44 21.532C18.1653 20.6147 18.7093 19.612 19.072 18.524C19.4347 17.436 19.616 16.3693 19.616 15.324C19.616 14.1507 19.392 12.9667 18.944 11.772C18.5173 10.556 17.9093 9.468 17.12 8.508C16.352 7.52667 15.4133 6.73734 14.304 6.14C13.1947 5.52134 11.968 5.212 10.624 5.212C9.30133 5.212 8.10667 5.51067 7.04 6.108C5.99467 6.684 5.10933 7.43067 4.384 8.348C3.65867 9.26534 3.104 10.2893 2.72 11.42C2.336 12.5293 2.144 13.628 2.144 14.716C2.144 15.8893 2.35733 17.0733 2.784 18.268C3.232 19.4627 3.85067 20.54 4.64 21.5C5.42933 22.46 6.35733 23.2387 7.424 23.836C8.512 24.4333 9.696 24.732 10.976 24.732Z"
          fill="#EFE7D2"/>
</svg>
